<mxfile host="app.diagrams.net" modified="2024-06-29T14:22:04.257Z" agent="Mozilla/5.0 (Windows NT 10.0; Win64; x64) AppleWebKit/537.36 (KHTML, like Gecko) Chrome/126.0.0.0 Safari/537.36" etag="x0bXJhioy2yE_6w088I3" version="24.6.4" type="device">
  <diagram name="Page-1" id="CwMUxCD2aoG02mUiZgtB">
    <mxGraphModel dx="800" dy="817" grid="1" gridSize="10" guides="1" tooltips="1" connect="1" arrows="1" fold="1" page="1" pageScale="1" pageWidth="850" pageHeight="1100" math="0" shadow="0">
      <root>
        <mxCell id="0" />
        <mxCell id="1" parent="0" />
        <mxCell id="s0vpPCVzMoGQf4kQ2faL-1" value="&lt;span style=&quot;font-size: 14px;&quot;&gt;ratio&lt;/span&gt;" style="rounded=1;whiteSpace=wrap;html=1;" vertex="1" parent="1">
          <mxGeometry x="450" y="400" width="100" height="40" as="geometry" />
        </mxCell>
        <mxCell id="s0vpPCVzMoGQf4kQ2faL-2" value="&lt;span style=&quot;font-size: 14px;&quot;&gt;rep(int)&lt;/span&gt;" style="rounded=1;whiteSpace=wrap;html=1;" vertex="1" parent="1">
          <mxGeometry x="310" y="400" width="100" height="40" as="geometry" />
        </mxCell>
        <mxCell id="s0vpPCVzMoGQf4kQ2faL-3" value="&lt;span style=&quot;font-size: 14px;&quot;&gt;duration&lt;/span&gt;" style="rounded=1;whiteSpace=wrap;html=1;" vertex="1" parent="1">
          <mxGeometry x="330" y="490" width="100" height="40" as="geometry" />
        </mxCell>
        <mxCell id="s0vpPCVzMoGQf4kQ2faL-4" value="&lt;span style=&quot;font-size: 14px;&quot;&gt;clock&lt;/span&gt;" style="rounded=1;whiteSpace=wrap;html=1;" vertex="1" parent="1">
          <mxGeometry x="180" y="490" width="100" height="40" as="geometry" />
        </mxCell>
        <mxCell id="s0vpPCVzMoGQf4kQ2faL-5" value="&lt;span style=&quot;font-size: 14px;&quot;&gt;time_point&lt;/span&gt;" style="rounded=1;whiteSpace=wrap;html=1;" vertex="1" parent="1">
          <mxGeometry x="240" y="580" width="100" height="40" as="geometry" />
        </mxCell>
        <mxCell id="s0vpPCVzMoGQf4kQ2faL-6" value="" style="endArrow=classic;html=1;rounded=0;exitX=0.5;exitY=1;exitDx=0;exitDy=0;entryX=0.5;entryY=0;entryDx=0;entryDy=0;" edge="1" parent="1" source="s0vpPCVzMoGQf4kQ2faL-1" target="s0vpPCVzMoGQf4kQ2faL-3">
          <mxGeometry width="50" height="50" relative="1" as="geometry">
            <mxPoint x="480" y="510" as="sourcePoint" />
            <mxPoint x="530" y="460" as="targetPoint" />
          </mxGeometry>
        </mxCell>
        <mxCell id="s0vpPCVzMoGQf4kQ2faL-7" value="" style="endArrow=classic;html=1;rounded=0;exitX=0.5;exitY=1;exitDx=0;exitDy=0;entryX=0.5;entryY=0;entryDx=0;entryDy=0;" edge="1" parent="1" source="s0vpPCVzMoGQf4kQ2faL-2" target="s0vpPCVzMoGQf4kQ2faL-3">
          <mxGeometry width="50" height="50" relative="1" as="geometry">
            <mxPoint x="502" y="449" as="sourcePoint" />
            <mxPoint x="408" y="498" as="targetPoint" />
          </mxGeometry>
        </mxCell>
        <mxCell id="s0vpPCVzMoGQf4kQ2faL-8" value="" style="endArrow=classic;html=1;rounded=0;exitX=0.42;exitY=0.975;exitDx=0;exitDy=0;exitPerimeter=0;entryX=0.5;entryY=0;entryDx=0;entryDy=0;" edge="1" parent="1" target="s0vpPCVzMoGQf4kQ2faL-5">
          <mxGeometry width="50" height="50" relative="1" as="geometry">
            <mxPoint x="382" y="530" as="sourcePoint" />
            <mxPoint x="270" y="581" as="targetPoint" />
          </mxGeometry>
        </mxCell>
        <mxCell id="s0vpPCVzMoGQf4kQ2faL-9" value="" style="endArrow=classic;html=1;rounded=0;exitX=0.5;exitY=1;exitDx=0;exitDy=0;entryX=0.5;entryY=0;entryDx=0;entryDy=0;" edge="1" parent="1" source="s0vpPCVzMoGQf4kQ2faL-4" target="s0vpPCVzMoGQf4kQ2faL-5">
          <mxGeometry width="50" height="50" relative="1" as="geometry">
            <mxPoint x="512" y="459" as="sourcePoint" />
            <mxPoint x="400" y="510" as="targetPoint" />
          </mxGeometry>
        </mxCell>
        <mxCell id="s0vpPCVzMoGQf4kQ2faL-10" value="&lt;font style=&quot;font-size: 14px;&quot;&gt;period&lt;/font&gt;&amp;nbsp;" style="rounded=1;whiteSpace=wrap;html=1;" vertex="1" parent="1">
          <mxGeometry x="470" y="490" width="100" height="40" as="geometry" />
        </mxCell>
        <mxCell id="s0vpPCVzMoGQf4kQ2faL-11" value="" style="shape=flexArrow;endArrow=classic;startArrow=classic;html=1;rounded=0;entryX=0.5;entryY=1;entryDx=0;entryDy=0;exitX=0.5;exitY=0;exitDx=0;exitDy=0;" edge="1" parent="1" source="s0vpPCVzMoGQf4kQ2faL-10" target="s0vpPCVzMoGQf4kQ2faL-1">
          <mxGeometry width="100" height="100" relative="1" as="geometry">
            <mxPoint x="400" y="570" as="sourcePoint" />
            <mxPoint x="500" y="470" as="targetPoint" />
          </mxGeometry>
        </mxCell>
        <mxCell id="s0vpPCVzMoGQf4kQ2faL-16" value="It&#39;s just ratio, but in time, it has timesemantic, such as, min(60,1) or millsecond(1,1000)" style="shape=callout;whiteSpace=wrap;html=1;perimeter=calloutPerimeter;position2=0.05;size=30;position=0.37;base=30;" vertex="1" parent="1">
          <mxGeometry x="560" y="400" width="190" height="90" as="geometry" />
        </mxCell>
        <mxCell id="s0vpPCVzMoGQf4kQ2faL-21" value="duration is based on&amp;nbsp;&lt;div&gt;ratio, from semantic point of view, it represents hour, min, second ....&lt;/div&gt;" style="shape=note;size=15;align=left;spacingLeft=10;html=1;whiteSpace=wrap;" vertex="1" parent="1">
          <mxGeometry x="470" y="550" width="150" height="70" as="geometry" />
        </mxCell>
        <mxCell id="s0vpPCVzMoGQf4kQ2faL-22" value="" style="edgeStyle=none;endArrow=none;exitX=0.4;exitY=0;dashed=1;html=1;rounded=0;entryX=0.5;entryY=1;entryDx=0;entryDy=0;" edge="1" source="s0vpPCVzMoGQf4kQ2faL-21" parent="1" target="s0vpPCVzMoGQf4kQ2faL-3">
          <mxGeometry x="1" relative="1" as="geometry">
            <mxPoint x="410" y="550" as="targetPoint" />
          </mxGeometry>
        </mxCell>
        <mxCell id="s0vpPCVzMoGQf4kQ2faL-24" value="time_point is based on two things, clock and duration. From semantic point, 20 second(duration) after the epoch(clock define)" style="shape=note;size=15;align=left;spacingLeft=10;html=1;whiteSpace=wrap;" vertex="1" parent="1">
          <mxGeometry x="340" y="630" width="220" height="70" as="geometry" />
        </mxCell>
        <mxCell id="s0vpPCVzMoGQf4kQ2faL-25" value="" style="edgeStyle=none;endArrow=none;dashed=1;html=1;rounded=0;entryX=1;entryY=0.5;entryDx=0;entryDy=0;" edge="1" parent="1" source="s0vpPCVzMoGQf4kQ2faL-24" target="s0vpPCVzMoGQf4kQ2faL-5">
          <mxGeometry x="1" relative="1" as="geometry">
            <mxPoint x="390" y="540" as="targetPoint" />
            <mxPoint x="495" y="575" as="sourcePoint" />
          </mxGeometry>
        </mxCell>
      </root>
    </mxGraphModel>
  </diagram>
</mxfile>
